<?xml version="1.0" encoding="UTF-8" standalone="no"?>
<svg width="960" height="340" viewBox="0 0 960 340" version="1.1" xmlns="http://www.w3.org/2000/svg" xml:space="preserve" style="fill-rule:evenodd;clip-rule:evenodd;stroke-linejoin:round;stroke-miterlimit:2;">
    <!-- Lume horizontal lockup: glyph (brand pink->purple gradient) + "Lume" wordmark.
         Wordmark outlined from SF Pro Display Regular (cap height, gap and baseline matched to the tvOS top shelf). -->
<g transform="matrix(1,0,0,1,-23,-89)">
        <g transform="matrix(1,0,0,1,1,0)">
            <path d="M244.127,139.384L351.127,231.384L351.26,231.5C359.435,238.71 364.125,249.1 364.125,260C364.125,270.9 359.435,281.29 351.26,288.5L351.127,288.616L244.127,380.616C243.469,381.182 242.76,381.685 242.008,382.12C236.835,385.111 230.964,386.686 224.988,386.686C206.336,386.686 190.988,371.338 190.988,352.686C190.988,352.38 190.992,352.074 191,351.792L191.001,168.237C190.992,167.929 190.988,167.622 190.988,167.314C190.988,148.662 206.336,133.314 224.988,133.314C230.964,133.314 236.835,134.889 242.008,137.88C242.76,138.315 243.469,138.818 244.127,139.384ZM227.155,161.719C226.467,161.452 225.732,161.314 224.988,161.314C221.697,161.314 218.988,164.022 218.988,167.314C218.988,167.382 218.989,167.451 218.992,167.52C218.997,167.68 219,167.84 219,168L219,352C219,352.16 218.997,352.32 218.992,352.48C218.989,352.549 218.988,352.618 218.988,352.686C218.988,355.978 221.697,358.686 224.988,358.686C225.732,358.686 226.466,358.548 227.156,358.281L332.819,267.43C334.921,265.535 336.125,262.833 336.125,260C336.125,257.155 334.911,254.441 332.791,252.546L227.155,161.719Z" style="fill:url(#_Linear1);"/>
        </g>
        <g transform="matrix(1,0,0,1,-19,0)">
            <g transform="matrix(1,0,0,1,0,-1)">
                <path d="M133.412,152.144C137.747,145.749 146.46,144.076 152.856,148.412C159.251,152.747 160.924,161.46 156.588,167.856C118.542,223.981 118.542,298.019 156.588,354.144C160.924,360.54 159.251,369.253 152.856,373.588C146.46,377.924 137.747,376.251 133.412,369.856C88.948,304.264 88.948,217.736 133.412,152.144Z" style="fill:url(#_Linear2);"/>
            </g>
            <g transform="matrix(1,0,0,1,45,0)">
                <path d="M117.908,192.945C121.801,186.271 130.381,184.014 137.055,187.908C143.729,191.801 145.986,200.381 142.092,207.055C121.349,242.609 120.849,273.192 141.592,315.881C144.969,322.831 142.068,331.215 135.119,334.592C128.169,337.969 119.785,335.068 116.408,328.119C90.641,275.091 92.141,237.109 117.908,192.945Z" style="fill:url(#_Linear3);"/>
            </g>
        </g>
    </g>
    <defs>
        <linearGradient id="_Linear1" x1="0" y1="0" x2="1" y2="0" gradientUnits="userSpaceOnUse" gradientTransform="matrix(-121.593,202.015,-202.015,-121.593,196,94.466)"><stop offset="0" style="stop-color:rgb(255,136,215);stop-opacity:1"/><stop offset="1" style="stop-color:rgb(112,0,180);stop-opacity:1"/></linearGradient>
        <linearGradient id="_Linear2" x1="0" y1="0" x2="1" y2="0" gradientUnits="userSpaceOnUse" gradientTransform="matrix(-121.593,202.015,-202.015,-121.593,196,94.466)"><stop offset="0" style="stop-color:rgb(255,136,215);stop-opacity:1"/><stop offset="1" style="stop-color:rgb(112,0,180);stop-opacity:1"/></linearGradient>
        <linearGradient id="_Linear3" x1="0" y1="0" x2="1" y2="0" gradientUnits="userSpaceOnUse" gradientTransform="matrix(-121.593,202.015,-202.015,-121.593,196,94.466)"><stop offset="0" style="stop-color:rgb(255,136,215);stop-opacity:1"/><stop offset="1" style="stop-color:rgb(112,0,180);stop-opacity:1"/></linearGradient>
    </defs>
    <path d="M422.359,250.226L512.754,250.226L512.754,233.510L440.934,233.510L440.934,101.323L422.359,101.323ZM567.032,252.290C583.336,252.290 594.275,244.964 600.053,234.954L600.466,234.954L600.466,250.226L618.421,250.226L618.421,142.908L600.466,142.908L600.466,206.061C600.466,224.326 589.425,236.399 572.501,236.399C555.991,236.399 547.839,226.802 547.839,209.363L547.839,142.908L529.884,142.908L529.884,212.562C529.884,237.018 543.505,252.290 567.032,252.290ZM641.742,250.226L659.697,250.226L659.697,182.946C659.697,167.984 670.016,156.736 684.257,156.736C697.568,156.736 706.236,165.301 706.236,178.303L706.236,250.226L724.191,250.226L724.191,182.018C724.191,167.365 734.201,156.736 748.441,156.736C762.578,156.736 770.730,165.507 770.730,180.263L770.730,250.226L788.685,250.226L788.685,176.136C788.685,154.775 774.961,140.845 753.704,140.845C738.638,140.845 726.049,148.584 720.064,161.483L719.651,161.483C715.007,148.377 704.172,140.845 689.519,140.845C675.692,140.845 664.960,147.965 660.110,158.593L659.697,158.593L659.697,142.908L641.742,142.908ZM855.656,252.290C879.080,252.290 896.622,238.256 900.131,220.508L900.337,219.476L882.692,219.476L882.382,220.404C879.286,229.588 869.690,236.399 856.069,236.399C836.978,236.399 824.802,223.500 824.389,201.417L901.679,201.417L901.679,194.813C901.679,162.618 883.827,140.845 854.521,140.845C825.215,140.845 806.228,163.650 806.228,196.877L806.228,196.980C806.228,230.723 824.802,252.290 855.656,252.290ZM854.417,156.736C870.102,156.736 881.660,166.539 883.414,187.383L824.699,187.383C826.659,167.365 838.836,156.736 854.417,156.736Z" style="fill:#FFFFFF;fill-rule:nonzero;"/>
</svg>
